<?xml version="1.0" standalone="no"?>
<!DOCTYPE svg PUBLIC "-//W3C//DTD SVG 20010904//EN"
 "http://www.w3.org/TR/2001/REC-SVG-20010904/DTD/svg10.dtd">
<svg version="1.0" xmlns="http://www.w3.org/2000/svg"
 width="59.000000pt" height="59.000000pt" viewBox="0 0 59.000000 59.000000"
 preserveAspectRatio="xMidYMid meet">

<g transform="translate(0.000000,59.000000) scale(0.100000,-0.100000)"
fill="#000000" stroke="none">
<path d="M95 576 c-37 -17 -70 -52 -84 -89 -6 -16 -11 -101 -11 -194 0 -200
12 -238 84 -272 38 -19 61 -21 211 -21 203 0 239 11 275 85 20 41 21 57 18
224 -3 196 -6 206 -72 255 -25 19 -43 21 -209 23 -137 2 -189 -1 -212 -11z
m156 -228 c19 -48 38 -90 41 -93 2 -3 22 38 43 90 l39 95 38 0 38 0 0 -145 0
-145 -30 0 -29 0 -3 92 -3 92 -35 -89 c-28 -69 -41 -91 -57 -93 -17 -3 -26 10
-56 85 l-36 88 -1 -87 0 -88 -35 0 -35 0 0 146 0 145 42 -3 43 -3 36 -87z"/>
</g>
</svg>
